<svg width="158.782" height="173.403" xmlns:xlink="http://www.w3.org/1999/xlink" xmlns="http://www.w3.org/2000/svg"><defs><linearGradient id="c"><stop style="stop-color:#f05252;stop-opacity:1" offset="0"/><stop style="stop-color:#f50056;stop-opacity:1" offset="1"/></linearGradient><linearGradient id="a"><stop style="stop-color:#fff;stop-opacity:1" offset="0"/><stop style="stop-color:#fff;stop-opacity:0" offset="1"/></linearGradient><linearGradient id="e"><stop style="stop-color:#000;stop-opacity:1" offset="0"/><stop style="stop-color:#000;stop-opacity:0" offset="1"/></linearGradient><linearGradient id="d"><stop style="stop-color:#fff;stop-opacity:1" offset="0"/><stop style="stop-color:#fff;stop-opacity:0" offset="1"/></linearGradient><linearGradient id="b"><stop offset="0" style="stop-color:#fff;stop-opacity:1"/><stop style="stop-color:#797a76;stop-opacity:1" offset=".5"/><stop offset="1" style="stop-color:#fff;stop-opacity:1"/></linearGradient><linearGradient xlink:href="#a" id="h" gradientUnits="userSpaceOnUse" x1="23.375" y1="20.496" x2="23.375" y2="37.098" gradientTransform="matrix(5.23437 0 0 5.20624 -40.862 -86.557)"/><linearGradient xlink:href="#b" id="g" gradientUnits="userSpaceOnUse" gradientTransform="matrix(5.23437 0 0 5.20624 -40.862 -81.351)" x1="14.683" y1="31.5" x2="31.941" y2="31.5"/><linearGradient xlink:href="#d" id="j" gradientUnits="userSpaceOnUse" gradientTransform="matrix(5.23437 0 0 5.20624 -40.862 -86.557)" x1="19.375" y1="23.313" x2="28.5" y2="57.563"/><radialGradient xlink:href="#e" id="f" gradientUnits="userSpaceOnUse" gradientTransform="matrix(9.10754 0 0 3.63999 -66.156 -5.588)" cx="16.175" cy="38.542" fx="16.175" fy="38.542" r="7.867"/><radialGradient xlink:href="#a" id="k" gradientUnits="userSpaceOnUse" gradientTransform="matrix(4.28432 0 0 3.13995 -18.977 -41.856)" cx="22.915" cy="22.863" fx="22.915" fy="22.863" r="4.969"/><radialGradient xlink:href="#a" id="l" gradientUnits="userSpaceOnUse" gradientTransform="matrix(12.96185 0 0 12.51812 -196.096 -319.771)" cx="19.831" cy="32.614" fx="19.831" fy="32.614" r="2.794"/><radialGradient xlink:href="#e" id="m" gradientUnits="userSpaceOnUse" gradientTransform="matrix(4.65824 -.03274 .04033 5.67927 -24.004 -106.426)" cx="21.938" cy="25.096" fx="21.938" fy="25.096" r="4.969"/><radialGradient xlink:href="#c" id="i" cx="79.526" cy="111.279" fx="79.526" fy="111.279" r="47.103" gradientTransform="matrix(1 0 0 .77387 0 25.163)" gradientUnits="userSpaceOnUse"/></defs><path style="fill:none;stroke:#555753;stroke-width:2.37048;stroke-miterlimit:4;stroke-dasharray:none;stroke-opacity:.701961" d="m80.414 46.042 76.142 126.16-154.425-1.16z"/><path style="fill:none;stroke:#555753;stroke-width:2.35564;stroke-miterlimit:4;stroke-dasharray:none;stroke-opacity:.701961" d="M80.473 125.687 156.671 1.193 2.133 2.338z"/><ellipse style="display:inline;overflow:visible;visibility:visible;opacity:.6;fill:url(#f);fill-opacity:1;fill-rule:nonzero;stroke:none;stroke-width:7.47149;stroke-linecap:round;stroke-linejoin:round;stroke-miterlimit:4;stroke-dasharray:none;stroke-dashoffset:0;stroke-opacity:1;marker:none;marker-start:none;marker-mid:none;marker-end:none;enable-background:accumulate" cx="81.163" cy="134.707" rx="71.643" ry="28.633"/><path style="display:inline;overflow:visible;visibility:visible;opacity:.7;fill:url(#g);fill-opacity:1;fill-rule:nonzero;stroke:#555753;stroke-width:5.22028;stroke-linecap:round;stroke-linejoin:round;stroke-miterlimit:4;stroke-dashoffset:0;stroke-opacity:1;marker:none;marker-start:none;marker-mid:none;marker-end:none;enable-background:accumulate" d="M79.526 9.756c-15.55 0-25.336 6.18-39.258 10.415l16.028 16.922c1.406 6.506 1.631 13.833-2.94 19.523-10.472 13.013-29.065 31.115-28.793 59.869 0 21.552 24.624 39.047 54.96 39.047 30.34 0 54.962-17.49 54.962-39.047-1.34-27.551-18.32-46.856-28.793-59.869-8.61-10.713-.426-27.103.821-33.03 1.08-1.087 1.8-2.197 1.8-3.415 0-5.746-13.242-10.415-28.79-10.415z"/><path style="display:inline;overflow:visible;visibility:visible;opacity:.5;fill:url(#h);fill-opacity:1;fill-rule:nonzero;stroke:none;stroke-width:5.22028;stroke-linecap:round;stroke-linejoin:round;stroke-miterlimit:4;stroke-dashoffset:0;stroke-opacity:1;marker:none;marker-start:none;marker-mid:none;marker-end:none;enable-background:accumulate" d="M79.53 12.319c-13.375 0-22.64 4.811-34.689 8.94l13.331 14.072a2.575 2.561 0 0 1 .644 1.219c1.471 6.84 1.832 15.098-3.444 21.658-10.673 13.27-28.49 30.612-28.229 58.257a2.575 2.561 0 0 1 0 .021c0 9.809 5.585 18.816 15.028 25.521 9.443 6.711 22.686 10.965 37.358 10.965 14.672 0 27.915-4.254 37.357-10.965 9.422-6.695 14.997-15.686 15.018-25.469-1.325-26.525-17.687-45.231-28.213-58.325-4.963-6.164-5.005-13.828-3.822-20.357 1.194-6.533 3.633-12.468 4.125-14.796a2.575 2.561 0 0 1 .68-1.27c.87-.875 1.068-1.406 1.068-1.62 0-.457-.267-1.144-1.402-2.092-1.13-.953-3.026-1.989-5.46-2.863-4.868-1.74-11.835-2.895-19.35-2.895z"/><path style="display:inline;overflow:visible;visibility:visible;fill:#f05252;fill-opacity:1;fill-rule:nonzero;stroke:url(#i);stroke-width:5.21916;stroke-linecap:round;stroke-linejoin:round;stroke-miterlimit:4;stroke-dasharray:none;stroke-dashoffset:0;stroke-opacity:1;marker:none;marker-start:none;marker-mid:none;marker-end:none;enable-background:accumulate" d="M49.918 77.437c-8.033 10.466-15.043 22.504-14.884 38.884v.164c0 6.837 3.874 13.586 11.775 19.197 7.902 5.616 19.568 9.44 32.717 9.44 13.15 0 24.811-3.824 32.713-9.44 7.845-5.569 11.723-12.248 11.78-19.03v-.167c-.896-15.681-7.729-28.344-15.382-39.048z"/><ellipse style="display:inline;overflow:visible;visibility:visible;fill:#f23154;fill-opacity:1;fill-rule:nonzero;stroke:url(#linearGradient14234);stroke-width:5.52143;stroke-linecap:round;stroke-linejoin:round;stroke-miterlimit:4;stroke-dasharray:none;stroke-dashoffset:0;stroke-opacity:1;marker:none;marker-start:none;marker-mid:none;marker-end:none;enable-background:accumulate" cx="79.526" cy="77.437" rx="30.449" ry="11.011"/><path d="M79.526 14.966c-11.193 0-19.695 3.778-29.772 7.481l10.471 11.064a5.28 5.28 0 0 1 1.308 2.439c1.548 7.183 1.923 16.44-4.089 23.917-10.883 13.53-27.9 30.14-27.648 56.622 0 8.783 4.994 16.93 13.904 23.26 8.914 6.334 21.68 10.578 35.826 10.578 14.148 0 26.907-4.244 35.822-10.578 8.806-6.254 13.786-14.272 13.903-22.938v-.326c-1.364-25.354-17.069-43.474-27.643-56.618-5.64-7.01-5.674-15.55-4.417-22.453 1.257-6.898 4.394-13.306 4.745-14.967a5.242 5.242 0 0 1 1.145-2.276c-.793-.639-2.908-1.665-5.074-2.439-4.455-1.6-11.24-2.766-18.48-2.766z" style="display:inline;overflow:visible;visibility:visible;opacity:.59;fill:none;fill-opacity:1;fill-rule:nonzero;stroke:url(#j);stroke-width:5.22028;stroke-linecap:round;stroke-linejoin:round;stroke-miterlimit:4;stroke-dashoffset:0;stroke-opacity:1;marker:none;marker-start:none;marker-mid:none;marker-end:none;enable-background:accumulate"/><path style="display:inline;overflow:visible;visibility:visible;fill:none;fill-opacity:.102662;fill-rule:nonzero;stroke:url(#k);stroke-width:5.22028;stroke-linecap:round;stroke-linejoin:round;stroke-miterlimit:4;stroke-dashoffset:0;stroke-opacity:1;marker:none;marker-start:none;marker-mid:none;marker-end:none;enable-background:accumulate" d="M55.808 25.376c7.484 2.808 14.65 5.206 23.718 5.206 7.33 0 14.045-1.167 18.48-2.766 2.223-.798 3.827-1.796 4.582-2.44"/><path style="display:inline;overflow:visible;visibility:visible;opacity:.7;fill:url(#l);fill-opacity:1;fill-rule:nonzero;stroke:none;stroke-width:4.67667;stroke-linecap:round;stroke-linejoin:round;stroke-miterlimit:4;stroke-dashoffset:0;stroke-opacity:1;marker:none;marker-start:none;marker-mid:none;marker-end:none;enable-background:accumulate" d="M63.822 25.376c6.51 1.288 10.973 1.26 15.704 1.409 2.617 40.242-13.083 76.687 0 110.525H63.822c-39.259-41.65 23.554-75.488 0-111.934z"/><path d="M55.808 30.582c7.484 2.807 14.65 5.21 23.718 5.21 7.33 0 14.045-1.167 18.48-2.767 2.223-.802 3.827-1.8 4.582-2.443" style="display:inline;overflow:visible;visibility:visible;opacity:.15;fill:none;fill-opacity:.102662;fill-rule:nonzero;stroke:url(#m);stroke-width:5.22028;stroke-linecap:round;stroke-linejoin:round;stroke-miterlimit:4;stroke-dashoffset:0;stroke-opacity:1;marker:none;marker-start:none;marker-mid:none;marker-end:none;enable-background:accumulate"/></svg>